<mxfile host="app.diagrams.net" agent="Mozilla/5.0 (Windows NT 10.0; Win64; x64) AppleWebKit/537.36 (KHTML, like Gecko) Chrome/131.0.0.0 Safari/537.36" version="26.0.5">
  <diagram name="Documents class" id="9FN_7QrL7bDhH2xpMbpj">
    <mxGraphModel dx="1195" dy="643" grid="1" gridSize="10" guides="1" tooltips="1" connect="1" arrows="1" fold="1" page="1" pageScale="1" pageWidth="827" pageHeight="1169" math="0" shadow="0">
      <root>
        <mxCell id="0" />
        <mxCell id="1" parent="0" />
        <mxCell id="qxar2i6eTfuTEpqdG3V1-7" style="edgeStyle=orthogonalEdgeStyle;rounded=0;orthogonalLoop=1;jettySize=auto;html=1;exitX=1;exitY=0.5;exitDx=0;exitDy=0;entryX=0;entryY=0.5;entryDx=0;entryDy=0;" edge="1" parent="1" source="qxar2i6eTfuTEpqdG3V1-1" target="qxar2i6eTfuTEpqdG3V1-2">
          <mxGeometry relative="1" as="geometry" />
        </mxCell>
        <mxCell id="qxar2i6eTfuTEpqdG3V1-1" value="Check Deal for Flat&lt;span style=&quot;background-color: transparent; color: light-dark(rgb(0, 0, 0), rgb(255, 255, 255));&quot;&gt;ID&lt;/span&gt;&lt;span style=&quot;background-color: transparent; color: light-dark(rgb(0, 0, 0), rgb(255, 255, 255));&quot;&gt;&amp;nbsp;&lt;/span&gt;" style="rounded=0;whiteSpace=wrap;html=1;" vertex="1" parent="1">
          <mxGeometry x="80" y="80" width="120" height="60" as="geometry" />
        </mxCell>
        <mxCell id="qxar2i6eTfuTEpqdG3V1-8" style="edgeStyle=orthogonalEdgeStyle;rounded=0;orthogonalLoop=1;jettySize=auto;html=1;exitX=1;exitY=0.5;exitDx=0;exitDy=0;entryX=0;entryY=0.5;entryDx=0;entryDy=0;" edge="1" parent="1" source="qxar2i6eTfuTEpqdG3V1-2" target="qxar2i6eTfuTEpqdG3V1-4">
          <mxGeometry relative="1" as="geometry" />
        </mxCell>
        <mxCell id="qxar2i6eTfuTEpqdG3V1-2" value="Check Flat for docs folder ID&lt;span style=&quot;background-color: transparent; color: light-dark(rgb(0, 0, 0), rgb(255, 255, 255));&quot;&gt;&amp;nbsp;&lt;/span&gt;" style="rounded=0;whiteSpace=wrap;html=1;" vertex="1" parent="1">
          <mxGeometry x="354" y="80" width="120" height="60" as="geometry" />
        </mxCell>
        <mxCell id="qxar2i6eTfuTEpqdG3V1-9" style="edgeStyle=orthogonalEdgeStyle;rounded=0;orthogonalLoop=1;jettySize=auto;html=1;exitX=1;exitY=0.5;exitDx=0;exitDy=0;" edge="1" parent="1" source="qxar2i6eTfuTEpqdG3V1-4" target="qxar2i6eTfuTEpqdG3V1-6">
          <mxGeometry relative="1" as="geometry" />
        </mxCell>
        <mxCell id="qxar2i6eTfuTEpqdG3V1-4" value="Create Array with Main folder structure" style="rounded=0;whiteSpace=wrap;html=1;" vertex="1" parent="1">
          <mxGeometry x="620" y="80" width="120" height="60" as="geometry" />
        </mxCell>
        <mxCell id="qxar2i6eTfuTEpqdG3V1-11" style="edgeStyle=orthogonalEdgeStyle;rounded=0;orthogonalLoop=1;jettySize=auto;html=1;exitX=1;exitY=0.5;exitDx=0;exitDy=0;entryX=0;entryY=0.5;entryDx=0;entryDy=0;" edge="1" parent="1" source="qxar2i6eTfuTEpqdG3V1-6" target="qxar2i6eTfuTEpqdG3V1-10">
          <mxGeometry relative="1" as="geometry" />
        </mxCell>
        <mxCell id="qxar2i6eTfuTEpqdG3V1-6" value="Create (upload) this structure inside Y.Disk" style="rounded=0;whiteSpace=wrap;html=1;" vertex="1" parent="1">
          <mxGeometry x="80" y="250" width="120" height="60" as="geometry" />
        </mxCell>
        <mxCell id="qxar2i6eTfuTEpqdG3V1-13" style="edgeStyle=orthogonalEdgeStyle;rounded=0;orthogonalLoop=1;jettySize=auto;html=1;exitX=1;exitY=0.5;exitDx=0;exitDy=0;entryX=0;entryY=0.5;entryDx=0;entryDy=0;" edge="1" parent="1" source="qxar2i6eTfuTEpqdG3V1-10" target="qxar2i6eTfuTEpqdG3V1-12">
          <mxGeometry relative="1" as="geometry" />
        </mxCell>
        <mxCell id="qxar2i6eTfuTEpqdG3V1-10" value="Get remote main folder link" style="rounded=0;whiteSpace=wrap;html=1;" vertex="1" parent="1">
          <mxGeometry x="354" y="250" width="120" height="60" as="geometry" />
        </mxCell>
        <mxCell id="qxar2i6eTfuTEpqdG3V1-15" style="edgeStyle=orthogonalEdgeStyle;rounded=0;orthogonalLoop=1;jettySize=auto;html=1;exitX=1;exitY=0.5;exitDx=0;exitDy=0;" edge="1" parent="1" source="qxar2i6eTfuTEpqdG3V1-12" target="qxar2i6eTfuTEpqdG3V1-14">
          <mxGeometry relative="1" as="geometry" />
        </mxCell>
        <mxCell id="qxar2i6eTfuTEpqdG3V1-12" value="Write down Remote link to Deal&#39;s Excel File" style="rounded=0;whiteSpace=wrap;html=1;" vertex="1" parent="1">
          <mxGeometry x="620" y="250" width="120" height="60" as="geometry" />
        </mxCell>
        <mxCell id="qxar2i6eTfuTEpqdG3V1-17" style="edgeStyle=orthogonalEdgeStyle;rounded=0;orthogonalLoop=1;jettySize=auto;html=1;exitX=1;exitY=0.5;exitDx=0;exitDy=0;entryX=0;entryY=0.5;entryDx=0;entryDy=0;" edge="1" parent="1" source="qxar2i6eTfuTEpqdG3V1-14" target="qxar2i6eTfuTEpqdG3V1-16">
          <mxGeometry relative="1" as="geometry" />
        </mxCell>
        <mxCell id="qxar2i6eTfuTEpqdG3V1-14" value="Upload Deal Excel File to Y.Disk" style="rounded=0;whiteSpace=wrap;html=1;" vertex="1" parent="1">
          <mxGeometry x="80" y="420" width="120" height="60" as="geometry" />
        </mxCell>
        <mxCell id="qxar2i6eTfuTEpqdG3V1-16" value="Get respond for returning ArRespond to ItPanel" style="rounded=0;whiteSpace=wrap;html=1;" vertex="1" parent="1">
          <mxGeometry x="354" y="420" width="120" height="60" as="geometry" />
        </mxCell>
      </root>
    </mxGraphModel>
  </diagram>
</mxfile>
